<svg xmlns="http://www.w3.org/2000/svg" viewBox="0 0 762 762" fill="none" shape-rendering="auto"><metadata xmlns:rdf="http://www.w3.org/1999/02/22-rdf-syntax-ns#" xmlns:xsi="http://www.w3.org/2001/XMLSchema-instance" xmlns:dc="http://purl.org/dc/elements/1.1/" xmlns:dcterms="http://purl.org/dc/terms/"><rdf:RDF><rdf:Description><dc:title>Adventurer</dc:title><dc:creator>Lisa Wischofsky</dc:creator><dc:source xsi:type="dcterms:URI">https://www.figma.com/community/file/1184595184137881796</dc:source><dcterms:license xsi:type="dcterms:URI">https://creativecommons.org/licenses/by/4.0/</dcterms:license><dc:rights>Remix of „Adventurer” (https://www.figma.com/community/file/1184595184137881796) by „Lisa Wischofsky”, licensed under „CC BY 4.0” (https://creativecommons.org/licenses/by/4.0/)</dc:rights></rdf:Description></rdf:RDF></metadata><mask id="viewboxMask"><rect width="762" height="762" rx="0" ry="0" x="0" y="0" fill="#fff" /></mask><g mask="url(#viewboxMask)"><path d="M396 164.8a224.8 224.8 0 0 1 104.8 42.4c6.2 4.9 12.5 9.4 18 15a225.4 225.4 0 0 1 71.8 149 58.5 58.5 0 0 1 50.9 42.2 71 71 0 0 1-27.6 76.5c-11 7.7-24.5 12-38 11.7-5 0-10-1.6-15-1.8-1.9 2.2-3.3 4.9-4.8 7.3A223.3 223.3 0 0 1 389 609.8c-11 .7-21.9 2-33 .7a223.7 223.7 0 0 1-178.8-342.3A223.4 223.4 0 0 1 352 163.5c14.6-1.4 29.4-.3 44 1.3Z" fill="#000"/><path fill-rule="evenodd" clip-rule="evenodd" d="M498.8 213.2A216 216 0 0 0 363 169c-13-.2-26.2 1.6-39 4a218 218 0 0 0-113.6 365.5 218.5 218.5 0 0 0 260.4 40.2c35-18.8 64.2-47.3 84.4-81.5l-3-1.6c-2.8-1.4-5.7-3-8-5-2.2-2-.3-5.8 2.7-4.7 1.5.7 3 1.6 4.4 2.4a55 55 0 0 0 59.6-3.6 64.5 64.5 0 0 0 25-69.8 53.1 53.1 0 0 0-24-31 52.6 52.6 0 0 0-47-2.8c-1.6.8-3.4 1.5-5 1.3-2.5-.2-2.8-4.2-.6-5.2 8-4 16.5-5.6 25.4-6.4a217 217 0 0 0-72-146.4c-4.4-4-8.7-8.1-13.9-11.3Zm107.6 196.2c2-1.2 1.3-5.1-1.4-5-2 0-4.2.8-6.2 1.6l-1.4.4a95.1 95.1 0 0 0-25.5 12.4c-2.2 2-2.2 4.4.1 6.2a92 92 0 0 0 5.2 2.8 36 36 0 0 1 13 9.2c-.2 1.9-2 3.4-3.4 4.5l-.2.2c-3.9 3-8.8 5-13.6 7-2.5 1-4.9 2-7.1 3.1-1.7.8-2.6 2.2-1.6 3.9 1 2 3.2 1.1 5 .5l.6-.2 5.4-2.3c5.4-2.3 11-4.5 15.4-8 2.7-2.1 5.1-5.1 5.4-8.7-.5-3.4-2.7-5.7-5.3-7.8a83 83 0 0 0-11.6-7.2l-1.1-.6c5.4-3 10.8-5.6 16.6-7.7l5-1.7a52 52 0 0 0 6.7-2.6Z" fill="#f2d3b1"/><g transform="translate(-161 -83)"><path d="M590 433c11.8 7 21 17.6 26.7 30 5.9-3.1 11.6-6.7 17.6-9.6 1.8-1 4.4.5 4 2.6.2 1.5-2 2.5-3 3.2l-16.4 9a65.7 65.7 0 0 1-39.4 82.3A65.9 65.9 0 0 1 501 523c-6-9.9-9.3-21.4-9.3-33a64.8 64.8 0 0 1 53.3-64.8c15.2-3 31.6 0 45 7.9Z" fill="#000"/><path d="M549.2 430.3a59.7 59.7 0 0 1 67.2 59.7 59.5 59.5 0 1 1-67.2-59.7Z" fill="#fff"/><path d="M390 447a55 55 0 1 1-55.7 38.6l-11.3-4.5c-2-.8-4-1.4-5.4-3-.4-2.5.8-4 3.2-3.7 5.2 1.3 10 4.2 15.2 5.6 1.4-1.7 2.2-3.8 3.3-5.7A55 55 0 0 1 390 447Z" fill="#000"/><path d="M376.5 453.7a49.3 49.3 0 1 1 20.8 96.4 49.3 49.3 0 0 1-20.8-96.4Z" fill="#fff"/><path d="M578.3 465.4a24.9 24.9 0 0 1 27.9 24.6c-.4 4.8-1.8 9.7-4.6 13.6a24.6 24.6 0 0 1-18.6 10.6c-8.2.5-16.4-3.3-21.2-10-6-8-6.3-19.8-.6-28a24.7 24.7 0 0 1 17-10.8ZM408.4 478.5a23 23 0 0 1 19.7 7.5c4 4.4 6 10 5.7 16 0 12-10.7 22.8-22.8 22.3a23 23 0 0 1-22.9-22.3 22.8 22.8 0 0 1 20.3-23.5Z" fill="#000"/></g><g transform="translate(-161 -83)"><path d="M607 397.6c1.5-.4 3.2.6 4.7 1 0 1.2-.1 2.4-.4 3.6-1.6 1.5-3.6 2.6-5.4 3.8a803.6 803.6 0 0 1-70.4 40.6A289.9 289.9 0 0 1 500 462a50 50 0 0 1-21 3.5c-3.3-.4-6.2-3-6.2-6.5 0-4.2 3-8.6 5-12.1 1.3-2.7 4.5-3 7-4.1l111.7-41.5c3.5-1.2 7-2.8 10.5-3.7ZM339 432.6l90 18c2.3.4 4.6.1 6.9.5 2.4 2.3 3.6 6.2 4.5 9.4 1.2 4-.1 8.8-4 11-4 2.6-9.8 2.1-14.4 1.9-8.8-1-17.4-3.8-25.7-6.8a418 418 0 0 1-57-27c-1.6-.9-3.6-1.9-4.8-3.5-.3-2.9 1.9-4.1 4.5-3.5Z" fill="#000"/></g><g transform="translate(-161 -83)"><path d="M517.9 557.8c1.5.3 2.8 1.6 2.7 3.2-7 16.8-15 33.2-25.1 48.4-4.7 7-9.2 14.2-14.5 20.6-2.1 3.3-8 3-10.8.8-6.9-5-13.3-10.7-19-16.9-9.3-10.4-18-20.1-24.8-32.4-.8-1.9-2.3-4-.8-5.9.6-1.2 3-.8 3.6.2 5.1 9.2 11.4 17.7 18.5 25.5a154 154 0 0 0 22.7 22.3c1.2.8 2.4 1.7 3.8 2 2.6.4 3.8-1.2 5.3-3.1 13.5-19 25.7-38.8 34.6-60.4.9-2 1.5-3.7 3.8-4.3Z" fill="#000"/></g><g transform="translate(-161 -83)"></g><g transform="translate(-161 -83)"><path d="M569 416.3c10.7-.3 21.4 0 32-.2 14-.7 28-.4 42-.6 3.9.2 9-.1 12.2 2.4 2.4 1.6 2.2 5.5 2.4 8-.1 4.4-.3 9.5-2.4 13.4-5 2-11.4 1.2-16.8 1.9.4 12.3 1.7 24.6 1.3 36.8-.7 14-3.7 28-10.3 40.4-8.1 13-20 24.3-33.6 31.5a77 77 0 0 1-33.3 7.7c-6.3.2-12.1.5-18.3-.8-9.4-2-18.8-4.4-27-10A81.6 81.6 0 0 1 492 516a193.1 193.1 0 0 1-13.3-43.9c-.5-2.3-2.4-3.5-4.3-4.4-6.7-3-15-.6-18.8 5.6-.8 2.4-1 5-1.2 7.6-.6 7.6-2.2 15.3-3.9 22.8-3.1 13.6-9 26.3-16.8 37.8a50.8 50.8 0 0 1-16.2 14.8 75.6 75.6 0 0 1-34.4 10.3c-7.2-.2-14.2-.4-21.1-2.5-5.5-1.3-10.5-4.8-15.2-8a57.7 57.7 0 0 1-15.3-16.7c-5.3-8.3-9.3-17.3-12.2-26.7a97.5 97.5 0 0 1-5.2-28.7c-4.6.7-9.4 2.2-14 2-4.4-.9-5.3-7.6-5.5-11.1.1-2.4-.1-6.8 2.7-7.7 21.6-9.8 44.4-17 67.5-22.4 17-3.7 34.8-8.3 52.3-6.7 11.2 1 22.8 4 31.7 11 3.2 2.5 5.5 7 9.4 7.7 7 1.8 14.5-1.3 20.9-4 3.6-10 10-17.3 19-22.8a89.3 89.3 0 0 1 20.8-8.3c16.7-4 33.1-4.6 50.2-5.5Z" fill="#000"/><path d="M307.1 478.2c1.2-1.2 3.4 0 2.4 1.6-1.2 1.2-3.4 0-2.4-1.6Z" fill="#000"/><ellipse cx="605" cy="457.5" rx="14" ry="10.5" fill="#fff"/><ellipse cx="411" cy="476.1" rx="11" ry="8.1" fill="#fff"/></g><g transform="translate(-161 -83)"><g fill="#000"><path d="M605 154c5 1.7 10.2 4.2 14.2 7.8 1.6 1.2 1.7 4.3-.4 5-4.5.7-9 .3-13.5 1.7-7.7 2-14 6.3-19 12.4 16-4.2 33.1-2.2 48.6 3.2 16.9 6 33.3 16.3 44.8 30.3 7.1 8.9 12.6 20 11.4 31.6a29 29 0 0 1-5.6 14 186.1 186.1 0 0 1 74.8 76.7c9.7 19.7 15 41.4 15.1 63.3 0 19.4-4.2 38.9-11.7 56.7-.9 1.8-1.5 4-3.8 4-4.8-.2-9-1.7-13.9-1-8 1-15.7 2.1-23.2 5-4.1 1.7-9 2.9-12.6 5.5-4.1 4.5-6.9 10.1-11.3 14.5-1-.8-2.1-1.6-3-2.7-.2-2 1.3-4 2.4-5.6 4-5.4 7.9-11 12-16.3-5.3 2.7-10.2 6.1-15.5 8.6a3.7 3.7 0 0 1-5.5-2.8c-.8-6.2-.2-12.6-.7-18.9-1.5-17.6-.5-34.8 1-52.3-1.6 3-3.1 6-5 8.9-1 2-4 3-5.9 1.7a106 106 0 0 1-27-22c-9.2-10.2-19.2-20.7-24.8-33.2a77.3 77.3 0 0 1-7-33.1c.2-6 .7-11.9 1-17.8-3.4 3.1-7 6-10.4 9.2-1.4 1.3-3 2.8-4.6 3.6-1.7.6-3.5-.3-4.1-2-1.2-3.2-1.6-6.8-2.3-10.1l-13 9.5c-2.7 2-5.5 3.5-8.7 4.3-11 2.4-21.7 2.5-32.8 2.7-10 .6-20 0-30 .5-14.6.4-28.3 1-42.2-4.3.6 2.8 1.5 5.6 1.8 8.5-.2 2.2-2 3-3.8 3.7A126.2 126.2 0 0 1 433 331a81 81 0 0 1-35.5-8.5c-4.8-2.5-8.8-5.8-13-8.9-.3 4.2.9 8.2.7 12.3-1.3 1.6-3.2 1.9-5 .8-2.3-1.7-4.2-4.1-6.1-6.2.1 3 .7 6.4.2 9.5-1 1.6-2.7 2.2-4.4 2.8-4.6 1.4-9.2 2-14 2.5a156 156 0 0 0-20.6 31.8c-1.3 2.5-2.2 5.5-4.1 7.6-1.3.1-2.3 0-3.2-.5-1.7-3-1.6-7-3-10.3-2.6-7.5-4.2-15.2-5.6-23a68.7 68.7 0 0 1 3.3-30.3c2.3-6.8 5.9-13 10.4-18.7 8.6-11 19.2-19.6 30.8-27.1 21.6-14 46.2-23.7 70.9-30.4 32.5-8.5 66.1-12 99.7-10.6-4.5-4.6-8-9.8-9.4-16.1-2.5-9-.2-18.4 4.3-26.4a60.6 60.6 0 0 1 29.4-24.8c14.6-6 31-7.6 46.2-2.7Z"/><path d="M716 470.5c2.7 2.5.5 4.4-1.1 6.4-6 6.5-11.2 13.5-16.5 20.6-1.4 2-3 1-5.1 1.1.1-1.8 0-3.5 1.2-5 5-7 10.5-13.6 16.1-20 1.7-1.6 2.8-3.6 5.5-3Z"/></g><g fill="#6a4e35"><path d="M608.6 161.7a40.6 40.6 0 0 0-34.8 35.3 51.8 51.8 0 0 0 5.5 30.4 367.3 367.3 0 0 0-31.3-2.7c-3.2.2-5.6-1.9-8-3.7-6-5-10-12-10-20a34 34 0 0 1 8.8-23.1 62.1 62.1 0 0 1 36-20 53.8 53.8 0 0 1 33.8 3.8Z"/><path d="M619.8 186c18.8 3.9 37 13 50.6 26.6 7.2 7.4 13.7 17 15 27.4 1 6.3-1.3 12.1-5 17-16.5-9-34.2-16-52.4-21-13.6-3.3-27.6-5.4-41.5-7.6a45.3 45.3 0 0 1-4.7-39.6c4.4-1.6 8.6-3.2 13.2-3.8 8.4-1.6 16.5-.6 24.8 1ZM534 229.8c11 .2 22 1 33 2 17.4 1.8 34.6 4.8 51.8 7.9 11.4 2.3 22.4 6.2 33.2 10.4 31.6 12.6 60.8 32 82.8 58.2 18 21.6 30.4 47.6 33.8 75.7l1 12c.4 6.3-.5 12.5-.9 19-1.4 13.8-5.2 27-10.4 39.8-9.8-1.8-18.8.3-28.3 2.1-4.5.8-8.8 2.9-13.2 4.3 1.9-2.8 4.2-5.4 5.7-8.5.8-2.2.1-4.2-2.5-4.5-2.4.7-4.4 2-6.4 3.4-6.2 4-12.6 7.5-18.9 11.2-.7-20.2-1.5-40.7 0-60.8.4-6 1.4-12 1.5-18 0-3-3.2-4.3-5.1-2-4.2 5.4-6.8 12-10.3 17.8-4.8-3-9.5-6-14-9.7-6.1-5-11-10.7-16.3-16.6-6.5-7.6-12.8-14.7-17.3-23.7a68.4 68.4 0 0 1-7.6-32.8c.1-7.5-.2-14.6 1.6-22 .2-1.7 1-4.3-1.4-4.8-2-.7-3.8 1.2-5.3 2.3l-14.2 12.3c-.7-2.9-1-6-2.3-8.7-1-2.2-3.8-2.8-5.8-1.7-6.4 4-12.2 9.2-18.8 13-7.6 2.2-16.5 2.5-24.4 3.2-14.7.5-29.3.1-44 .5-10.1 0-21.3 1.1-31-1.8-3.6-.9-6.7-2.6-10-3.8-1.2-.1-3.3 1.2-3.1 2.5 0 3.8 1.2 7.6 1.9 11.4-6.4 1.6-12.4 3.5-18.8 4.6a87.1 87.1 0 0 1-40-2.2 60.8 60.8 0 0 1-22.8-13c-1.8-1.5-3.4-3.3-5.7-1.3-2 2.7-2.1 7.1-2.4 10.4-1.5-1.8-2.8-4-4.6-5.4-1.3-1-3.2-.2-4.8 0a34.3 34.3 0 0 0-.9 14.6c-7.4 2.2-15 3-22.8 3.2-1.7 0-2.3 1.4-3.4 2.4l1.3 2.7 4.4 1c-7 8.6-12.5 17.8-17.7 27.6a91.4 91.4 0 0 1-5.6-36c1.1-10 3.8-20 9.7-28.4 6.6-9.7 15.6-18 25-24.8 17.5-12.7 37.8-22 58.1-29a313.7 313.7 0 0 1 116.2-16Z"/></g></g><g transform="translate(-161 -83)"></g></g></svg>